<?xml version="1.0" encoding="UTF-8"?>
<!DOCTYPE svg PUBLIC "-//W3C//DTD SVG 1.1//EN" "http://www.w3.org/Graphics/SVG/1.1/DTD/svg11.dtd">
<!-- Creator: CorelDRAW 2020 (64-Bit) -->
<svg xmlns="http://www.w3.org/2000/svg" xml:space="preserve" width="32.0689mm" height="30.7149mm" version="1.1" shape-rendering="geometricPrecision" text-rendering="geometricPrecision" image-rendering="optimizeQuality" fill-rule="evenodd" clip-rule="evenodd"
viewBox="0 0 360.37 345.16"
 xmlns:xlink="http://www.w3.org/1999/xlink"
 xmlns:xodm="http://www.corel.com/coreldraw/odm/2003">
 <g id="Layer_x0020_1">
  <metadata id="CorelCorpID_0Corel-Layer"/>
  <path fill="#1C1C1A" d="M319.62 191.51l-283.41 0c-10.69,0 -20.79,-4.7 -27.66,-12.89 -6.97,-8.31 -9.86,-19.21 -7.99,-29.89 15.15,-86.26 89.82,-148.72 177.35,-148.72 87.53,0 162.21,62.47 177.36,148.72 1.87,10.68 -1.02,21.59 -7.99,29.89 -6.88,8.19 -16.97,12.89 -27.66,12.89zm7.6 69.51l-294.07 0c-18.28,0 -33.15,-14.87 -33.15,-33.15 0,-18.28 14.87,-33.15 33.15,-33.15l294.07 0c18.28,0 33.15,14.87 33.15,33.15 0,18.28 -14.87,33.15 -33.15,33.15zm-294.07 -43.45c-5.67,0 -10.3,4.62 -10.3,10.3 0,5.67 4.62,10.3 10.3,10.3l294.07 0c5.67,0 10.3,-4.62 10.3,-10.3 0,-5.67 -4.62,-10.3 -10.3,-10.3l-294.07 0zm75.26 -133.81c0,5.25 -6.34,9.5 -14.17,9.5 -7.82,0 -14.17,-4.25 -14.17,-9.5 0,-5.25 6.34,-9.5 14.17,-9.5 7.83,0 14.17,4.25 14.17,9.5zm45.31 -31.61c0,5.25 -6.34,9.5 -14.17,9.5 -7.82,0 -14.17,-4.25 -14.17,-9.5 0,-5.25 6.34,-9.5 14.17,-9.5 7.83,0 14.17,4.25 14.17,9.5zm0 54.34c0,5.25 -6.34,9.5 -14.17,9.5 -7.82,0 -14.17,-4.25 -14.17,-9.5 0,-5.25 6.34,-9.5 14.17,-9.5 7.83,0 14.17,4.25 14.17,9.5zm82.84 -54.34c0,5.25 -6.34,9.5 -14.17,9.5 -7.83,0 -14.17,-4.25 -14.17,-9.5 0,-5.25 6.34,-9.5 14.17,-9.5 7.83,0 14.17,4.25 14.17,9.5zm0 54.34c0,5.25 -6.34,9.5 -14.17,9.5 -7.83,0 -14.17,-4.25 -14.17,-9.5 0,-5.25 6.34,-9.5 14.17,-9.5 7.83,0 14.17,4.25 14.17,9.5zm-47.96 -28.81c0,5.25 -6.34,9.5 -14.17,9.5 -7.83,0 -14.17,-4.25 -14.17,-9.5 0,-5.25 6.34,-9.5 14.17,-9.5 7.82,0 14.17,4.25 14.17,9.5zm87.82 0c0,5.25 -6.34,9.5 -14.17,9.5 -7.83,0 -14.17,-4.25 -14.17,-9.5 0,-5.25 6.34,-9.5 14.17,-9.5 7.82,0 14.17,4.25 14.17,9.5zm29.15 267.47l-255.32 0c-20.5,0 -38.26,-13.91 -43.17,-33.81l-2.5 -10.13c-1.87,-7.58 -0.16,-15.55 4.65,-21.7 4.83,-6.16 12.12,-9.71 19.95,-9.71l297.44 0c7.83,0 15.12,3.55 19.95,9.71 4.82,6.15 6.52,14.12 4.65,21.7l-2.5 10.13c-4.91,19.9 -22.67,33.81 -43.17,33.81zm-276.38 -52.5c-0.78,0 -1.48,0.34 -1.96,0.95 -0.48,0.61 -0.64,1.37 -0.46,2.13l2.5 10.13c2.39,9.68 11.01,16.43 20.98,16.43l255.32 0c9.97,0 18.59,-6.75 20.98,-16.43l2.5 -10.13c0.19,-0.76 0.03,-1.52 -0.46,-2.13 -0.48,-0.62 -1.18,-0.95 -1.96,-0.95l-297.44 0zm148.72 -269.8c-76.43,0 -141.61,54.51 -154.84,129.82 -0.71,4.02 0.36,8.11 2.98,11.24 2.53,3.01 6.22,4.73 10.16,4.73l283.41 0c3.93,0 7.63,-1.72 10.16,-4.73 2.63,-3.13 3.68,-7.22 2.98,-11.24 -13.23,-75.32 -78.41,-129.82 -154.84,-129.82z"/>
 </g>
</svg>
