<?xml version="1.0" encoding="UTF-8"?>
<!DOCTYPE svg PUBLIC "-//W3C//DTD SVG 1.1//EN" "http://www.w3.org/Graphics/SVG/1.1/DTD/svg11.dtd">
<!-- Creator: CorelDRAW 2020 (64-Bit) -->
<svg xmlns="http://www.w3.org/2000/svg" xml:space="preserve" width="30.2328mm" height="30.2328mm" version="1.1" shape-rendering="geometricPrecision" text-rendering="geometricPrecision" image-rendering="optimizeQuality" fill-rule="evenodd" clip-rule="evenodd"
viewBox="0 0 259.4 259.4"
 xmlns:xlink="http://www.w3.org/1999/xlink"
 xmlns:xodm="http://www.corel.com/coreldraw/odm/2003">
 <g id="Layer_x0020_1">
  <metadata id="CorelCorpID_0Corel-Layer"/>
  <path fill="#1C1C1A" d="M200.9 130.67l-142.97 0c-5.39,0 -10.49,-2.37 -13.95,-6.5 -3.52,-4.19 -4.97,-9.69 -4.03,-15.08 7.64,-43.51 45.31,-75.03 89.47,-75.03 44.16,0 81.83,31.51 89.47,75.03 0.95,5.39 -0.51,10.89 -4.03,15.08 -3.47,4.13 -8.56,6.5 -13.95,6.5zm3.83 35.07l-148.35 0c-9.22,0 -16.72,-7.5 -16.72,-16.72 0,-9.22 7.5,-16.72 16.72,-16.72l148.35 0c9.22,0 16.72,7.5 16.72,16.72 0,9.22 -7.5,16.72 -16.72,16.72zm-148.35 -21.92c-2.86,0 -5.19,2.33 -5.19,5.19 0,2.86 2.33,5.19 5.19,5.19l148.35 0c2.86,0 5.19,-2.33 5.19,-5.19 0,-2.86 -2.33,-5.19 -5.19,-5.19l-148.35 0zm37.97 -67.5c0,2.65 -3.2,4.79 -7.15,4.79 -3.95,0 -7.15,-2.15 -7.15,-4.79 0,-2.65 3.2,-4.79 7.15,-4.79 3.95,0 7.15,2.15 7.15,4.79zm22.86 -15.95c0,2.65 -3.2,4.79 -7.15,4.79 -3.95,0 -7.15,-2.15 -7.15,-4.79 0,-2.65 3.2,-4.79 7.15,-4.79 3.95,0 7.15,2.15 7.15,4.79zm0 27.41c0,2.65 -3.2,4.79 -7.15,4.79 -3.95,0 -7.15,-2.15 -7.15,-4.79 0,-2.65 3.2,-4.79 7.15,-4.79 3.95,0 7.15,2.15 7.15,4.79zm41.79 -27.41c0,2.65 -3.2,4.79 -7.15,4.79 -3.95,0 -7.15,-2.15 -7.15,-4.79 0,-2.65 3.2,-4.79 7.15,-4.79 3.95,0 7.15,2.15 7.15,4.79zm0 27.41c0,2.65 -3.2,4.79 -7.15,4.79 -3.95,0 -7.15,-2.15 -7.15,-4.79 0,-2.65 3.2,-4.79 7.15,-4.79 3.95,0 7.15,2.15 7.15,4.79zm-24.19 -14.53c0,2.65 -3.2,4.79 -7.15,4.79 -3.95,0 -7.15,-2.15 -7.15,-4.79 0,-2.65 3.2,-4.79 7.15,-4.79 3.95,0 7.15,2.15 7.15,4.79zm44.3 0c0,2.65 -3.2,4.79 -7.15,4.79 -3.95,0 -7.15,-2.15 -7.15,-4.79 0,-2.65 3.2,-4.79 7.15,-4.79 3.95,0 7.15,2.15 7.15,4.79zm14.71 134.93l-128.8 0c-10.34,0 -19.3,-7.02 -21.78,-17.06l-1.26 -5.11c-0.94,-3.82 -0.08,-7.85 2.35,-10.95 2.44,-3.11 6.12,-4.9 10.06,-4.9l150.05 0c3.95,0 7.63,1.79 10.07,4.9 2.43,3.1 3.29,7.12 2.35,10.95l-1.26 5.11c-2.48,10.04 -11.44,17.06 -21.78,17.06zm-139.42 -26.49c-0.39,0 -0.74,0.17 -0.99,0.48 -0.24,0.31 -0.32,0.69 -0.23,1.08l1.26 5.11c1.2,4.88 5.55,8.29 10.58,8.29l128.8 0c5.03,0 9.38,-3.4 10.58,-8.29l1.26 -5.11c0.09,-0.38 0.01,-0.77 -0.23,-1.08 -0.24,-0.31 -0.59,-0.48 -0.99,-0.48l-150.05 0zm75.03 -136.1c-38.56,0 -71.44,27.5 -78.11,65.49 -0.36,2.03 0.18,4.09 1.5,5.67 1.28,1.52 3.14,2.39 5.12,2.39l142.97 0c1.98,0 3.85,-0.87 5.12,-2.39 1.32,-1.58 1.86,-3.64 1.5,-5.67 -6.67,-38 -39.56,-65.49 -78.11,-65.49z"/>
  <path fill="#E62129" fill-rule="nonzero" d="M129.7 0c35.81,0 68.24,14.52 91.71,37.99 23.47,23.47 37.99,55.9 37.99,91.71 0,35.81 -14.52,68.24 -37.99,91.71 -23.47,23.47 -55.9,37.99 -91.71,37.99 -35.81,0 -68.24,-14.52 -91.71,-37.99 -23.47,-23.47 -37.99,-55.9 -37.99,-91.71 0,-35.81 14.52,-68.24 37.99,-91.71 23.47,-23.47 55.9,-37.99 91.71,-37.99zm-69.09 45.77l153.02 153.02c15.48,-18.78 24.77,-42.85 24.77,-69.09 0,-30.02 -12.17,-57.2 -31.84,-76.87 -19.67,-19.67 -46.85,-31.84 -76.87,-31.84 -26.24,0 -50.31,9.3 -69.09,24.77zm138.18 167.86l-153.02 -153.02c-15.48,18.78 -24.77,42.85 -24.77,69.09 0,30.02 12.17,57.2 31.84,76.87 19.67,19.67 46.85,31.84 76.87,31.84 26.24,0 50.31,-9.3 69.09,-24.77z"/>
 </g>
</svg>
