<?xml version="1.0" encoding="UTF-8"?>
<!DOCTYPE svg PUBLIC "-//W3C//DTD SVG 1.1//EN" "http://www.w3.org/Graphics/SVG/1.1/DTD/svg11.dtd">
<!-- Creator: CorelDRAW 2020 (64-Bit) -->
<svg xmlns="http://www.w3.org/2000/svg" xml:space="preserve" width="3.33334in" height="4.37275in" version="1.1" shape-rendering="geometricPrecision" text-rendering="geometricPrecision" image-rendering="optimizeQuality" fill-rule="evenodd" clip-rule="evenodd"
viewBox="0 0 146.51 192.19"
 xmlns:xlink="http://www.w3.org/1999/xlink"
 xmlns:xodm="http://www.corel.com/coreldraw/odm/2003">
 <g id="Layer_x0020_1">
  <metadata id="CorelCorpID_0Corel-Layer"/>
  <path fill="000"  d="M105.38 192.19c-1.8,-1.39 -3.51,-2.89 -5.13,-4.5 -4.51,-4.51 -8.18,-9.81 -10.8,-15.63 -2.72,-6.03 -4.29,-12.55 -4.59,-19.16l-0.03 -86.33c-0.21,-4.22 -1.07,-8.09 -2.81,-11.95 -1.6,-3.55 -3.84,-6.79 -6.6,-9.55 -2.93,-2.93 -6.4,-5.27 -10.22,-6.88 -3.94,-1.66 -8.22,-2.53 -12.49,-2.52 -4.3,0.01 -8.55,0.85 -12.52,2.53 -3.82,1.61 -7.29,3.96 -10.22,6.88 -2.93,2.93 -5.27,6.4 -6.89,10.22 -1.67,3.95 -2.53,8.23 -2.53,12.51l0 63.79 22.6 0 0 -43.27 0 -20.52c0.01,-2.55 0.99,-4.94 2.8,-6.74 1.8,-1.81 4.19,-2.79 6.74,-2.8 2.55,0.01 4.93,0.97 6.75,2.78 1.8,1.81 2.53,3.57 2.79,6.04 0,7.08 0.01,85.07 0.01,85.07l-19.07 0 -22.6 0 -20.55 0 -0 -84.34c-0,-7.04 1.41,-14.05 4.16,-20.53 2.64,-6.25 6.48,-11.93 11.28,-16.73 4.8,-4.8 10.49,-8.64 16.74,-11.28 6.48,-2.75 13.49,-4.16 20.53,-4.16 7.03,-0 14.02,1.41 20.49,4.14 6.26,2.64 11.95,6.48 16.75,11.28 4.51,4.51 8.18,9.81 10.8,15.63 2.93,6.48 4.28,12.81 4.63,19.89l0 20.59 0 105.54zm41.13 0c-11.22,-8.63 -18.53,-21.45 -20.21,-35.52l0 -91.11c-0.49,-10.02 -2.33,-18.81 -6.48,-27.99 -3.66,-8.11 -8.78,-15.52 -15.08,-21.81 -6.12,-6.13 -13.29,-11.13 -21.15,-14.76 17.21,-3.4 35.11,2.04 47.49,14.42 4.51,4.51 8.18,9.81 10.8,15.63 2.93,6.49 4.28,12.81 4.63,19.89 0,47.09 0,94.17 0,141.26z"/>
 </g>
</svg>
